<?xml version="1.0" encoding="UTF-8"?>
<svg width="600pt" height="600pt" version="1.1" viewBox="10 10 580 580" xmlns="http://www.w3.org/2000/svg" xmlns:xlink="http://www.w3.org/1999/xlink">
  <g stroke="black" stroke-width="50">
    <path d="m552.16 168c-12.32-36.961-41.441-64.398-84-78.961-70.559-25.199-171.36-11.762-239.12 31.359-39.199 25.199-63.84 60.48-71.121 101.92-6.7188 36.961 2.2383 71.121 12.32 92.398-4.4805 2.8008-7.8398 6.1602-11.199 10.078-9.5195 11.199-12.879 24.078-10.078 38.078 3.9219 21.281 24.641 36.398 54.879 39.762 5.0391 0.55859 9.5195 1.1211 14.559 1.1211 8.9609 0 18.48-1.1211 26.879-3.3594 8.9609 16.238 7.8398 30.801 4.4805 40.32-3.9219 12.879-12.879 23.52-22.961 28l10.078 23.52c16.801-7.2812 30.801-23.52 36.961-43.68 6.1602-19.602 3.9219-39.762-5.6016-58.238 5.6016-3.9219 10.078-8.9609 12.879-14.559 2.2383-5.0391 3.9219-9.5195 4.4805-14.559 90.16 10.078 194.32-24.078 242.48-81.199 29.125-34.164 36.965-72.242 24.086-112zm-345.52 210c-14.559-1.6797-30.801-7.8398-33.602-19.602-1.1211-6.1602 0.55859-11.762 4.4805-16.801 1.6797-1.6797 3.3594-3.3594 5.6016-5.0391 9.5195 11.199 19.602 20.16 29.121 28.559 5.0391 4.4805 9.5195 8.3984 14 12.879-5.6016 0.5625-12.883 0.5625-19.602 0.003906zm52.078-13.441c-0.55859 1.6797-2.8008 3.3594-4.4805 5.0391-7.8398-8.9609-15.68-16.238-24.078-23.52-7.2812-6.1602-14-12.879-21.281-20.16 5.6016-1.1211 11.199-1.6797 17.359-1.6797 15.121 0.55859 26.879 6.1602 32.48 15.121 3.3594 7.8398 3.9219 16.801 0 25.199zm250.88-101.36c-43.68 51.52-143.92 82.879-225.68 71.68-1.1211-2.8008-2.2383-5.6016-3.9219-8.3984-10.078-16.801-29.68-26.879-53.199-27.441-11.762-0.55859-23.52 1.6797-33.602 5.0391-8.3984-17.922-15.121-47.039-10.078-77.281 6.1602-34.719 26.32-63.281 59.922-84.559 61.039-38.641 154.56-50.961 217.28-29.121 24.078 8.3984 55.441 26.32 68.32 63.281 9.5156 30.801 3.3555 59.922-19.043 86.801z" />
  </g>
</svg>
